<svg width="940" height="100" viewBox="0 0 940 100" fill="none" xmlns="http://www.w3.org/2000/svg">
<g filter="url(#filter0_d_135_6)">
<path d="M64.7685 30.4773C63.0639 13.7727 50.6207 4.22727 33.7457 4.22727C15.1321 4.22727 0.643466 17.0114 0.643466 40.0909C0.643466 63.0682 14.7912 75.9545 33.7457 75.9545C52.9048 75.9545 63.5071 62.9318 64.7685 50.5568L47.723 50.4545C46.5298 57.1705 41.4844 61.1591 34.0866 61.1591C24.1321 61.1591 17.8594 53.9659 17.8594 40.0909C17.8594 26.7614 23.9957 19.0227 34.1889 19.0227C41.8594 19.0227 46.8707 23.4886 47.723 30.4773H64.7685ZM95.8679 75.9886C112.334 75.9886 122.322 65.1136 122.322 48.9886C122.322 32.8295 112.334 21.9545 95.8679 21.9545C79.402 21.9545 69.4134 32.8295 69.4134 48.9886C69.4134 65.1136 79.402 75.9886 95.8679 75.9886ZM95.9702 63.4091C89.7997 63.4091 86.3906 57.5455 86.3906 48.8864C86.3906 40.1932 89.7997 34.2955 95.9702 34.2955C101.936 34.2955 105.345 40.1932 105.345 48.8864C105.345 57.5455 101.936 63.4091 95.9702 63.4091ZM127.862 75H144.533V44.0114C144.533 38.8295 147.567 35.5227 151.93 35.5227C156.26 35.5227 159.124 38.5568 159.124 43.3977V75H175.146V43.7386C175.146 38.7273 177.908 35.5227 182.51 35.5227C186.737 35.5227 189.737 38.3523 189.737 43.5682V75H206.408V39.75C206.408 28.6705 199.589 21.9545 189.703 21.9545C181.964 21.9545 175.862 26.0114 173.919 32.25H173.374C171.976 25.9773 166.351 21.9545 159.089 21.9545C151.93 21.9545 146.476 25.875 144.294 32.25H143.714V22.6364H127.862V75ZM213.737 75H230.237V66.5114H230.749C232.862 71.3523 237.567 75.75 245.476 75.75C257.067 75.75 266.408 66.6818 266.408 48.8523C266.408 30.375 256.521 21.9545 245.578 21.9545C237.294 21.9545 232.76 26.7955 230.749 31.6023H230.408V5.18182H213.737V75ZM230.067 48.8182C230.067 40.2614 233.612 34.9773 239.714 34.9773C245.885 34.9773 249.294 40.3977 249.294 48.8182C249.294 57.2727 245.885 62.7614 239.714 62.7614C233.612 62.7614 230.067 57.3068 230.067 48.8182ZM272.143 75H288.814V22.6364H272.143V75ZM280.496 16.5341C285.234 16.5341 289.053 12.9545 289.053 8.55682C289.053 4.15909 285.234 0.613632 280.496 0.613632C275.791 0.613632 271.939 4.15909 271.939 8.55682C271.939 12.9545 275.791 16.5341 280.496 16.5341ZM313.095 45.1364C313.129 39.1705 316.607 35.625 321.891 35.625C327.175 35.625 330.311 39.1023 330.277 44.8977V75H346.947V41.625C346.982 29.8295 339.788 21.9545 328.777 21.9545C321.038 21.9545 315.175 25.875 312.857 32.25H312.277V22.6364H296.425V75H313.095V45.1364ZM378.746 75.9886C392.484 75.9886 401.518 69.3409 403.428 59.0455L388.121 58.6023C386.825 62.0795 383.416 63.9545 379.053 63.9545C372.643 63.9545 368.689 59.6932 368.689 53.2841V52.8409H403.598V48.6818C403.598 31.4318 393.098 21.9545 378.234 21.9545C362.416 21.9545 352.257 32.7955 352.257 49.0227C352.257 65.7955 362.28 75.9886 378.746 75.9886ZM368.689 43.1591C368.928 37.9432 373.053 33.9886 378.575 33.9886C384.064 33.9886 388.018 37.8068 388.087 43.1591H368.689ZM616.112 75H632.783V22.6364H616.112V75ZM624.464 16.5341C629.203 16.5341 633.021 12.9545 633.021 8.55682C633.021 4.15909 629.203 0.613632 624.464 0.613632C619.76 0.613632 615.908 4.15909 615.908 8.55682C615.908 12.9545 619.76 16.5341 624.464 16.5341ZM640.393 75H657.064V44.0114C657.064 38.8295 660.098 35.5227 664.462 35.5227C668.791 35.5227 671.655 38.5568 671.655 43.3977V75H687.678V43.7386C687.678 38.7273 690.439 35.5227 695.041 35.5227C699.268 35.5227 702.268 38.3523 702.268 43.5682V75H718.939V39.75C718.939 28.6705 712.121 21.9545 702.234 21.9545C694.496 21.9545 688.393 26.0114 686.45 32.25H685.905C684.507 25.9773 678.882 21.9545 671.621 21.9545C664.462 21.9545 659.007 25.875 656.825 32.25H656.246V22.6364H640.393V75ZM741.03 75.8864C748.325 75.8864 753.371 73.0568 756.234 67.7045H756.643V75H772.325V39.4091C772.325 28.3295 762.473 21.9545 749.143 21.9545C735.064 21.9545 727.087 29.0455 725.757 38.5909L741.132 39.1364C741.848 35.7955 744.609 33.75 749.007 33.75C753.098 33.75 755.689 35.7273 755.689 39.2386V39.4091C755.689 42.6136 752.212 43.2955 743.28 44.0795C732.678 44.9659 723.814 48.8864 723.814 60.4773C723.814 70.8409 731.007 75.8864 741.03 75.8864ZM746.178 64.9773C742.325 64.9773 739.598 63.1364 739.598 59.6591C739.598 56.2841 742.257 54.2386 746.996 53.5227C750.098 53.0795 753.916 52.3977 755.791 51.4091V56.3864C755.791 61.5 751.496 64.9773 746.178 64.9773ZM803.928 95.2841C819.712 95.2841 830.484 88.0909 830.484 75.2045V22.6364H813.882V31.6023H813.405C811.393 26.7955 806.825 21.9545 798.575 21.9545C787.632 21.9545 777.712 30.375 777.712 48.75C777.712 66.5455 787.155 74.2841 798.643 74.2841C806.348 74.2841 811.496 70.7045 813.473 65.8636H814.053V75.0682C814.053 81.3409 809.962 83.7273 804.371 83.7273C799.018 83.7273 795.814 81.6818 794.928 78.8864L779.143 79.7727C780.371 88.5 788.996 95.2841 803.928 95.2841ZM804.439 62.1477C798.268 62.1477 794.825 57.1364 794.825 48.75C794.825 40.3977 798.234 34.9773 804.439 34.9773C810.541 34.9773 814.087 40.2614 814.087 48.75C814.087 57.1705 810.507 62.1477 804.439 62.1477ZM862.589 75.9886C876.328 75.9886 885.362 69.3409 887.271 59.0455L871.964 58.6023C870.669 62.0795 867.26 63.9545 862.896 63.9545C856.487 63.9545 852.533 59.6932 852.533 53.2841V52.8409H887.442V48.6818C887.442 31.4318 876.942 21.9545 862.078 21.9545C846.26 21.9545 836.101 32.7955 836.101 49.0227C836.101 65.7955 846.124 75.9886 862.589 75.9886ZM852.533 43.1591C852.771 37.9432 856.896 33.9886 862.419 33.9886C867.908 33.9886 871.862 37.8068 871.93 43.1591H852.533ZM938.672 38.625C937.786 28.2614 929.297 21.9545 915.115 21.9545C900.933 21.9545 891.899 28.125 891.967 38.625C891.899 46.6705 897.047 51.8523 907.513 53.7955L916.649 55.5341C920.979 56.3864 922.956 57.75 923.024 60.0682C922.956 62.6932 920.024 64.4318 915.763 64.4318C911.024 64.4318 907.82 62.3864 907.104 58.5682L890.638 58.9773C891.831 69.3409 900.729 75.9886 915.695 75.9886C929.706 75.9886 939.899 69 939.967 58.2273C939.899 50.5909 934.854 46.0568 924.422 44.0455L914.331 42.1364C909.899 41.25 908.467 39.6818 908.501 37.6705C908.467 35.0114 911.57 33.375 915.422 33.375C919.82 33.375 922.888 35.7273 923.365 39.0341L938.672 38.625Z" fill="#2D3436"/>
<path d="M456.499 22.6364H446.51V19.7045C446.51 16.7045 447.737 14.8636 451.624 14.8636C453.192 14.8636 455.101 15.2045 456.328 15.5795L458.987 3.375C457.01 2.82955 452.476 1.90909 447.874 1.90909C437.203 1.90909 429.874 7.84091 429.874 19.9773V22.6364H422.817V34.9091H429.874V75H446.51V34.9091H456.499V22.6364ZM461.518 75H478.189V22.6364H461.518V75ZM469.871 16.5341C474.609 16.5341 478.428 12.9545 478.428 8.55682C478.428 4.15909 474.609 0.613632 469.871 0.613632C465.166 0.613632 461.314 4.15909 461.314 8.55682C461.314 12.9545 465.166 16.5341 469.871 16.5341ZM502.47 45.1364C502.504 39.1705 505.982 35.625 511.266 35.625C516.55 35.625 519.686 39.1023 519.652 44.8977V75H536.322V41.625C536.357 29.8295 529.163 21.9545 518.152 21.9545C510.413 21.9545 504.55 25.875 502.232 32.25H501.652V22.6364H485.8V75H502.47V45.1364ZM568.121 75.9886C581.859 75.9886 590.893 69.3409 592.803 59.0455L577.496 58.6023C576.2 62.0795 572.791 63.9545 568.428 63.9545C562.018 63.9545 558.064 59.6932 558.064 53.2841V52.8409H592.973V48.6818C592.973 31.4318 582.473 21.9545 567.609 21.9545C551.791 21.9545 541.632 32.7955 541.632 49.0227C541.632 65.7955 551.655 75.9886 568.121 75.9886ZM558.064 43.1591C558.303 37.9432 562.428 33.9886 567.95 33.9886C573.439 33.9886 577.393 37.8068 577.462 43.1591H558.064Z" fill="#D63031"/>
</g>
<defs>
<filter id="filter0_d_135_6" x="0.643463" y="0.613632" width="939.324" height="98.6705" filterUnits="userSpaceOnUse" color-interpolation-filters="sRGB">
<feFlood flood-opacity="0" result="BackgroundImageFix"/>
<feColorMatrix in="SourceAlpha" type="matrix" values="0 0 0 0 0 0 0 0 0 0 0 0 0 0 0 0 0 0 127 0" result="hardAlpha"/>
<feOffset dy="4"/>
<feColorMatrix type="matrix" values="0 0 0 0 1 0 0 0 0 1 0 0 0 0 1 0 0 0 1 0"/>
<feBlend mode="normal" in2="BackgroundImageFix" result="effect1_dropShadow_135_6"/>
<feBlend mode="normal" in="SourceGraphic" in2="effect1_dropShadow_135_6" result="shape"/>
</filter>
</defs>
</svg>
