<svg width="38" height="42" viewBox="0 0 38 42" fill="none" xmlns="http://www.w3.org/2000/svg">
<path d="M21.7583 31.7337C20.2375 33.2545 17.7631 33.2545 16.2424 31.7337C15.9312 31.4225 15.4266 31.4225 15.1153 31.7337C14.804 32.045 14.804 32.5496 15.1153 32.8609C16.1865 33.932 17.5934 34.4675 19.0004 34.4675C20.4074 34.4675 21.8143 33.932 22.8855 32.8609C23.1968 32.5496 23.1968 32.045 22.8855 31.7337C22.5742 31.4225 22.0695 31.4225 21.7583 31.7337Z" fill="white"/>
<path d="M37.0373 39.6411C35.1702 37.5735 35.0912 32.3053 35.3122 26.8544C36.1255 26.0905 36.635 25.0067 36.635 23.8056C36.635 22.7508 36.2419 21.7867 35.5956 21.0499C35.8671 15.4902 36.0112 11.7722 34.2477 8.33912C33.0445 5.99662 31.0978 4.03939 28.4616 2.52183C25.3891 0.753199 21.8843 -0.114976 18.3257 0.0122516C15.1999 0.123638 12.2898 1.57993 10.2831 4.02335C7.6919 4.17748 5.33475 5.58764 4.06656 7.76715C3.95767 7.95425 3.85236 8.14664 3.75353 8.33902C1.98898 11.774 2.13295 15.4917 2.40454 21.0508C1.75864 21.7875 1.3659 22.7512 1.3659 23.8056C1.3659 25.0063 1.875 26.0898 2.68789 26.8537C2.90886 32.305 2.82986 37.5736 0.962792 39.6412C0.786248 39.8366 0.717703 40.1068 0.779672 40.3629C0.841642 40.6189 1.02616 40.8279 1.27254 40.921C3.37404 41.7151 5.40928 41.999 7.24616 41.999C9.15437 41.999 10.8485 41.6923 12.1784 41.3327C14.4894 40.7078 16.1193 39.8307 16.6754 39.507C17.4323 39.6317 18.2087 39.6978 19.0004 39.6978C19.7919 39.6978 20.5681 39.6318 21.3248 39.5071C21.881 39.8309 23.5108 40.7078 25.8216 41.3327C27.5957 41.8124 29.2404 42 30.7282 42C33.2067 42 35.2496 41.4792 36.7275 40.9208C36.9739 40.8277 37.1584 40.6188 37.2203 40.3627C37.2824 40.1067 37.2138 39.8366 37.0373 39.6411ZM33.2475 25.4508V21.494C33.2477 21.4835 33.2477 21.4729 33.2475 21.4624V21.3411C34.2869 21.6782 35.0408 22.6553 35.0408 23.8055C35.0408 24.9649 34.2752 25.9488 33.2229 26.2782C33.2386 26.0043 33.2475 25.7286 33.2475 25.4508ZM5.17146 9.06742C5.25764 8.89974 5.3494 8.73197 5.44435 8.56887C6.49415 6.76467 8.50199 5.62849 10.6843 5.60368C10.6868 5.60368 10.6928 5.60358 10.6953 5.60348C10.9374 5.5984 11.164 5.48363 11.3114 5.29154C13.0315 3.04778 15.6088 1.70417 18.3825 1.60523C21.6423 1.48897 24.8527 2.28372 27.6661 3.9033C30.0318 5.26514 31.7691 7.00259 32.8295 9.06742C34.2411 11.8152 34.2829 14.8042 34.0515 19.94C33.7952 19.8335 33.5262 19.7521 33.2475 19.698V18.8875C33.2475 18.4474 32.8906 18.0905 32.4504 18.0905C32.0103 18.0905 31.6534 18.4474 31.6534 18.8875V20.6977C20.6743 20.815 14.7308 15.5267 13.1448 13.8722C12.9582 13.6775 12.6859 13.5904 12.4212 13.6405C12.1563 13.6906 11.9347 13.8713 11.8322 14.1207C10.674 16.938 8.65044 18.412 5.46407 18.7593C5.05968 18.8034 4.75341 19.1449 4.75341 19.5517V19.6979C4.47435 19.752 4.20505 19.8335 3.9486 19.9402C3.71706 14.8056 3.75921 11.8167 5.17146 9.06742ZM4.77792 26.2783C3.72563 25.9489 2.95997 24.965 2.95997 23.8056C2.95997 22.6553 3.71387 21.6782 4.75331 21.3412V25.4508C4.75331 25.7286 4.76218 26.0043 4.77792 26.2783ZM2.83085 39.7666C4.25217 37.3406 4.49866 33.3077 4.31793 27.8045C4.52954 27.8699 4.74853 27.9181 4.9729 27.9492C5.87943 33.0529 9.51284 37.2252 14.3077 38.9028C12.0016 39.8951 7.6368 41.21 2.83085 39.7666ZM19.0004 38.1037C12.0235 38.1037 6.34739 32.4276 6.34739 25.4507L6.34749 20.2473C9.33669 19.7554 11.4649 18.2839 12.814 15.773C13.9623 16.8206 15.819 18.2574 18.4357 19.5166C22.3701 21.41 26.8133 22.3438 31.6534 22.2921V25.4507C31.6534 32.4277 25.9773 38.1037 19.0004 38.1037ZM26.2901 39.8079C25.2681 39.5348 24.3863 39.2047 23.6902 38.9038C28.4866 37.227 32.1213 33.054 33.028 27.9492C33.2522 27.9181 33.4709 27.87 33.6823 27.8047C33.5014 33.3086 33.7478 37.3415 35.1698 39.7674C32.355 40.6177 29.3731 40.6321 26.2901 39.8079Z" fill="white"/>
<path d="M9.47378 23.0887C9.16244 23.3999 9.16244 23.9045 9.47378 24.2158C9.78502 24.527 10.2896 24.527 10.6009 24.2158C11.1118 23.7051 11.9429 23.705 12.4538 24.2158C12.6094 24.3714 12.8134 24.4492 13.0174 24.4492C13.2215 24.4492 13.4254 24.3714 13.581 24.2158C13.8924 23.9045 13.8924 23.3999 13.581 23.0887C12.4487 21.9563 10.6061 21.9562 9.47378 23.0887Z" fill="white"/>
<path d="M28.5271 24.2158C28.8385 23.9045 28.8385 23.3999 28.5271 23.0886C27.3947 21.9563 25.5522 21.9563 24.4199 23.0886C24.1085 23.3999 24.1085 23.9045 24.4199 24.2158C24.7311 24.527 25.2357 24.527 25.547 24.2158C26.0579 23.705 26.8891 23.7051 27.3999 24.2158C27.5555 24.3714 27.7595 24.4492 27.9635 24.4492C28.1675 24.4492 28.3715 24.3714 28.5271 24.2158Z" fill="white"/>
</svg>
