<svg width="38" height="42" viewBox="0 0 38 42" fill="none" xmlns="http://www.w3.org/2000/svg">
<path d="M10.7995 24.3104C11.1862 24.3104 11.5498 24.461 11.8232 24.7344C11.9779 24.8891 12.1805 24.9665 12.3833 24.9664C12.5859 24.9664 12.7887 24.8891 12.9433 24.7344C13.2527 24.4252 13.2527 23.9237 12.9433 23.6143C12.3707 23.0417 11.6094 22.7264 10.7996 22.7264C9.98992 22.7264 9.2286 23.0417 8.65598 23.6143C8.34661 23.9236 8.34661 24.4251 8.65598 24.7344C8.96536 25.0438 9.4668 25.0437 9.77598 24.7344C10.0493 24.461 10.4129 24.3104 10.7995 24.3104Z" fill="white"/>
<path d="M25.0567 23.6144C24.7474 23.9236 24.7474 24.4251 25.0567 24.7345C25.366 25.0437 25.8675 25.0437 26.1767 24.7345C26.7411 24.17 27.6597 24.1701 28.2241 24.7345C28.3787 24.8891 28.5814 24.9664 28.7841 24.9664C28.9869 24.9664 29.1895 24.8891 29.3442 24.7345C29.6535 24.4252 29.6535 23.9237 29.3442 23.6144C28.1623 22.4324 26.2389 22.4323 25.0567 23.6144Z" fill="white"/>
<path d="M27.1962 31.4275C22.6768 35.9469 15.3233 35.9469 10.8038 31.4275C10.4945 31.1182 9.99309 31.1182 9.68382 31.4275C9.37444 31.7368 9.37444 32.2383 9.68382 32.5476C12.2523 35.1161 15.6261 36.4003 19 36.4003C22.3739 36.4003 25.7478 35.1161 28.3163 32.5476C28.6256 32.2383 28.6256 31.7369 28.3163 31.4275C28.007 31.1182 27.5054 31.1182 27.1962 31.4275Z" fill="white"/>
<path d="M37.6876 25.1638C37.6876 23.0124 36.1323 21.2185 34.0873 20.8444V7.59484C34.0873 5.87598 33.2322 4.28247 31.8 3.33216C30.4547 2.43967 28.7847 2.23711 27.2746 2.76924L22.3021 1.08147C18.4813 -0.215535 14.4594 -0.348593 10.6713 0.696559C5.71218 2.06485 2.86907 4.95825 2.4302 9.07114C2.04182 9.58337 1.73324 10.1587 1.52355 10.7794L1.13785 11.921C0.930836 12.5339 1.15903 13.178 1.70591 13.5237C2.25269 13.8694 2.93253 13.7995 3.39744 13.3496C3.55624 13.1958 3.72989 13.0663 3.91264 12.958V20.8444C1.86768 21.2185 0.312378 23.0123 0.312378 25.1638C0.312378 27.4013 1.9945 29.2522 4.16034 29.5212C4.70425 32.5245 6.13353 35.2949 8.31897 37.5118C11.1723 40.4062 14.9654 42.0001 19 42.0001C19.0005 42.0001 19.001 42.0001 19.0015 42.0001C23.0309 41.9997 26.819 40.4303 29.6683 37.5812C31.8939 35.3556 33.3386 32.557 33.8645 29.5181C36.0183 29.2378 37.6876 27.3926 37.6876 25.1638ZM30.9242 4.65214C31.9278 5.31792 32.5033 6.39049 32.5033 7.59484V17.9591C30.045 17.5771 28.1574 15.4462 28.1574 12.8825L28.0919 4.17436C29.059 3.91943 30.0676 4.08377 30.9242 4.65214ZM2.87036 11.7419L3.02431 11.2864C3.42754 10.0929 4.323 9.124 5.48101 8.62821C6.63892 8.13241 7.95811 8.153 9.10008 8.68493C11.4985 9.80196 14.3979 9.19805 16.1508 7.21645L16.347 6.99459C16.6369 6.667 16.6062 6.16645 16.2786 5.87668C15.9509 5.5869 15.4504 5.61749 15.1606 5.94509L14.9644 6.16695C13.6726 7.62721 11.5361 8.07212 9.76883 7.24903C8.21918 6.52721 6.42894 6.49919 4.8575 7.1721C4.71445 7.23338 4.57535 7.30179 4.43843 7.37337C5.35904 4.91904 7.58715 3.19069 11.0928 2.22345C14.5737 1.26294 18.2738 1.38679 21.7932 2.58134L26.5079 4.18168L26.5697 8.27408C24.4704 11.1284 21.4087 13.0606 17.9197 13.725C14.347 14.4052 10.7024 13.6854 7.65695 11.698C6.16887 10.7271 4.2927 10.7686 2.87036 11.7419ZM1.89639 25.1638C1.89639 23.8904 2.74869 22.8128 3.91264 22.47V26.7629C3.91264 27.1337 3.92601 27.5025 3.95204 27.8689C2.76809 27.5389 1.89639 26.4516 1.89639 25.1638ZM28.5483 36.461C25.9982 39.0111 22.6078 40.4156 19.0014 40.416C19.0008 40.416 19.0007 40.416 19 40.416C15.3931 40.416 12.0001 38.9895 9.44698 36.3997C6.89959 33.8156 5.49665 30.3931 5.49665 26.7628V12.5846C5.94523 12.618 6.39033 12.7632 6.79109 13.0246C10.1815 15.237 14.2387 16.0384 18.2158 15.2811C21.4441 14.6663 24.3442 13.077 26.5733 10.7332V12.8824C26.5733 16.3208 29.1688 19.1627 32.5032 19.556V26.9126C32.5033 30.5196 31.0988 33.9106 28.5483 36.461ZM34.0567 27.8663C34.0763 27.5501 34.0873 27.2322 34.0873 26.9127V22.47C35.2512 22.8128 36.1035 23.8904 36.1035 25.1638C36.1035 26.4484 35.2363 27.5335 34.0567 27.8663Z" fill="white"/>
</svg>
