<svg width="42" height="42" viewBox="0 0 42 42" fill="none" xmlns="http://www.w3.org/2000/svg">
<path fill-rule="evenodd" clip-rule="evenodd" d="M24.5 3.5C24.5 4.79549 23.7962 5.9266 22.75 6.53177V7H35C37.8996 7 40.25 9.35051 40.25 12.25V33.25C40.25 36.1496 37.8996 38.5 35 38.5H7C4.10051 38.5 1.75 36.1496 1.75 33.25V12.25C1.75 9.35051 4.10051 7 7 7H19.25V6.53177C18.2038 5.9266 17.5 4.79549 17.5 3.5C17.5 1.567 19.0669 0 21 0C22.9331 0 24.5 1.567 24.5 3.5ZM7 10.5H19.25H22.75H35C35.9665 10.5 36.75 11.2835 36.75 12.25V33.25C36.75 34.2165 35.9665 35 35 35H7C6.03351 35 5.25 34.2165 5.25 33.25V12.25C5.25 11.2835 6.03351 10.5 7 10.5ZM26.25 20.125C26.25 18.6753 27.4253 17.5 28.875 17.5C30.3247 17.5 31.5 18.6753 31.5 20.125C31.5 21.5747 30.3247 22.75 28.875 22.75C27.4253 22.75 26.25 21.5747 26.25 20.125ZM28.875 14C25.4923 14 22.75 16.7423 22.75 20.125C22.75 23.5077 25.4923 26.25 28.875 26.25C32.2577 26.25 35 23.5077 35 20.125C35 16.7423 32.2577 14 28.875 14ZM13.125 17.5C11.6752 17.5 10.5 18.6753 10.5 20.125C10.5 21.5747 11.6752 22.75 13.125 22.75C14.5748 22.75 15.75 21.5747 15.75 20.125C15.75 18.6753 14.5748 17.5 13.125 17.5ZM7 20.125C7 16.7423 9.74225 14 13.125 14C16.5077 14 19.25 16.7423 19.25 20.125C19.25 23.5077 16.5077 26.25 13.125 26.25C9.74225 26.25 7 23.5077 7 20.125ZM19.0652 28.9674C18.6329 28.1029 17.5819 27.7526 16.7174 28.1848C15.8529 28.6171 15.5025 29.6681 15.9347 30.5326C16.9409 32.5449 19.2188 33.25 21 33.25C22.7812 33.25 25.0591 32.5449 26.0652 30.5326C26.4974 29.6681 26.1471 28.6171 25.2826 28.1848C24.4181 27.7526 23.3671 28.1029 22.9348 28.9674C22.7743 29.2883 22.1354 29.75 21 29.75C19.8646 29.75 19.2257 29.2883 19.0652 28.9674Z" fill="white"/>
</svg>
